<svg width="934" height="653" viewBox="0 0 934 653" fill="none" xmlns="http://www.w3.org/2000/svg">
<mask id="mask0_19_944" style="mask-type:alpha" maskUnits="userSpaceOnUse" x="0" y="0" width="930" height="645">
<rect width="930" height="645" fill="#1C2333"/>
</mask>
<g mask="url(#mask0_19_944)">
<rect x="91.5605" y="-55" width="20" height="934.307" transform="rotate(40 91.5605 -55)" fill="#111827" fill-opacity="0.25"/>
<rect x="171.378" y="-55" width="20" height="934.307" transform="rotate(40 171.378 -55)" fill="#111827" fill-opacity="0.25"/>
<rect x="251.195" y="-55" width="20" height="934.307" transform="rotate(40 251.195 -55)" fill="#111827" fill-opacity="0.25"/>
<rect x="331.013" y="-55" width="20" height="934.307" transform="rotate(40 331.013 -55)" fill="#111827" fill-opacity="0.25"/>
<rect x="410.83" y="-55" width="20" height="934.307" transform="rotate(40 410.83 -55)" fill="#111827" fill-opacity="0.25"/>
<rect x="490.647" y="-55" width="20" height="934.307" transform="rotate(40 490.647 -55)" fill="#111827" fill-opacity="0.25"/>
<rect x="570.464" y="-55" width="20" height="934.307" transform="rotate(40 570.464 -55)" fill="#111827" fill-opacity="0.25"/>
<rect x="650.282" y="-55" width="20" height="934.307" transform="rotate(40 650.282 -55)" fill="#111827" fill-opacity="0.25"/>
<rect x="730.099" y="-55" width="20" height="934.307" transform="rotate(40 730.099 -55)" fill="#111827" fill-opacity="0.25"/>
<rect x="809.916" y="-55" width="20" height="934.307" transform="rotate(40 809.916 -55)" fill="#111827" fill-opacity="0.25"/>
<rect x="889.733" y="-55" width="20" height="934.307" transform="rotate(40 889.733 -55)" fill="#111827" fill-opacity="0.25"/>
<rect x="969.55" y="-55" width="20" height="934.307" transform="rotate(40 969.55 -55)" fill="#111827" fill-opacity="0.25"/>
<rect x="1049.37" y="-55" width="20" height="934.307" transform="rotate(40 1049.37 -55)" fill="#111827" fill-opacity="0.25"/>
<rect x="1129.18" y="-55" width="20" height="934.307" transform="rotate(40 1129.18 -55)" fill="#111827" fill-opacity="0.25"/>
<rect x="1209" y="-55" width="20" height="934.307" transform="rotate(40 1209 -55)" fill="#111827" fill-opacity="0.25"/>
<rect x="1288.82" y="-55" width="20" height="934.307" transform="rotate(40 1288.82 -55)" fill="#111827" fill-opacity="0.25"/>
<rect x="1368.64" y="-55" width="20" height="934.307" transform="rotate(40 1368.64 -55)" fill="#111827" fill-opacity="0.25"/>
<rect x="1448.45" y="-55" width="20" height="934.307" transform="rotate(40 1448.45 -55)" fill="#111827" fill-opacity="0.25"/>
<rect x="1528.27" y="-55" width="20" height="934.307" transform="rotate(40 1528.27 -55)" fill="#111827" fill-opacity="0.25"/>
</g>
</svg>
