<svg width="50" height="32" viewBox="0 0 50 32" fill="none" xmlns="http://www.w3.org/2000/svg">
<g id="Payoneer" clip-path="url(#clip0_15_318)">
<g id="Payoneer_2">
<rect id="Rectangle" width="50" height="32" rx="3" fill="black"/>
<g id="Group">
<g id="Group_2">
<g id="g2670">
<path id="path2672" d="M8.7692 16.2762C8.95122 16.314 9.11467 16.3325 9.35464 16.3325C10.2944 16.3325 10.9277 15.737 10.9277 14.9806C10.9277 14.3002 10.4386 14.0548 9.80586 14.0548C9.527 14.0548 9.316 14.0738 9.18178 14.1111L8.7692 16.2762ZM8.24147 13.3267C8.63498 13.2318 9.22042 13.1755 9.79595 13.1755C10.4007 13.1755 11.0339 13.2979 11.4559 13.6293C11.8301 13.9128 12.0508 14.328 12.0508 14.896C12.0508 15.6518 11.686 16.2669 11.2254 16.6258C10.7075 17.0322 9.96805 17.2308 9.20059 17.2308C8.97003 17.2308 8.7692 17.202 8.59634 17.1835L8.12606 19.5942H7.03271L8.24147 13.3267Z" fill="white"/>
</g>
<g id="g2674">
<path id="path2676" d="M15.015 15.7839C14.9001 15.7551 14.7564 15.7368 14.5549 15.7368C13.5281 15.7368 12.722 16.8811 12.722 17.9304C12.722 18.4117 12.9043 18.8092 13.3939 18.8092C13.9211 18.8092 14.5549 18.1668 14.7755 16.9943L15.015 15.7839ZM14.5643 19.5941C14.5643 19.3193 14.6024 18.9512 14.6413 18.563H14.622C14.1616 19.405 13.5375 19.6978 12.9427 19.6978C12.1081 19.6978 11.5605 19.0549 11.5605 18.1288C11.5605 16.5595 12.6737 14.8861 14.852 14.8861C15.3604 14.8861 15.9075 14.9805 16.2723 15.0939L15.7829 17.4951C15.6482 18.1756 15.5717 19.0456 15.591 19.5941H14.5643Z" fill="white"/>
</g>
<g id="g2678">
<path id="path2680" d="M22.6227 17.7696C22.6227 18.4022 22.9585 18.8478 23.5343 18.8478C24.3691 18.8478 24.9258 17.7128 24.9258 16.7959C24.9258 16.3228 24.7047 15.7368 24.0336 15.7368C23.1411 15.7368 22.6227 16.9094 22.6227 17.7696ZM26.0772 16.7869C26.0772 18.3556 24.9734 19.6978 23.381 19.6978C22.2002 19.6978 21.4717 18.8943 21.4717 17.7974C21.4717 16.2382 22.5749 14.8863 24.1678 14.8863C25.4246 14.8863 26.0772 15.7749 26.0772 16.7869Z" fill="white"/>
</g>
<g id="g2682">
<path id="path2684" d="M26.2871 19.5942L26.8919 16.4177C27.0068 15.8692 27.0739 15.3871 27.1316 14.9904H28.1301L28.0244 15.8129H28.0432C28.4746 15.198 29.0699 14.8862 29.7225 14.8862C30.3938 14.8862 30.9122 15.2837 30.9122 16.1532C30.9122 16.3608 30.8745 16.6821 30.8262 16.9093L30.3168 19.5942H29.1942L29.6927 16.9944C29.7225 16.8244 29.7509 16.6258 29.7509 16.446C29.7509 16.0583 29.6071 15.7841 29.1658 15.7841C28.6573 15.7841 28.0045 16.3889 27.8032 17.4673L27.4003 19.5942H26.2871Z" fill="white"/>
</g>
<g id="g2686">
<path id="path2688" d="M33.8858 15.7085C33.1849 15.7085 32.7248 16.3228 32.5906 16.8811C33.7416 16.8903 34.4811 16.7391 34.4811 16.1816C34.4811 15.8886 34.2411 15.7085 33.8858 15.7085ZM34.9509 19.3291C34.49 19.5653 33.867 19.6978 33.3003 19.6978C32.0062 19.6978 31.3821 18.9136 31.3821 17.7884C31.3821 16.3987 32.4177 14.8863 34.0299 14.8863C34.9509 14.8863 35.5363 15.406 35.5363 16.1816C35.5363 17.3629 34.2798 17.7408 32.4759 17.7033C32.4564 17.8638 32.4947 18.1756 32.6005 18.3554C32.783 18.6677 33.1178 18.8282 33.5599 18.8282C34.0881 18.8282 34.5096 18.6957 34.8464 18.5257L34.9509 19.3291Z" fill="white"/>
</g>
<g id="g2690">
<path id="path2692" d="M38.2315 15.7085C37.5314 15.7085 37.0705 16.3228 36.9363 16.8811C38.0873 16.8903 38.8268 16.7391 38.8268 16.1816C38.8268 15.8886 38.5869 15.7085 38.2315 15.7085ZM39.2966 19.3291C38.8365 19.5653 38.2127 19.6978 37.647 19.6978C36.3519 19.6978 35.7278 18.9136 35.7278 17.7884C35.7278 16.3987 36.7634 14.8863 38.3756 14.8863C39.2966 14.8863 39.8831 15.406 39.8831 16.1816C39.8831 17.3629 38.6255 17.7408 36.8216 17.7033C36.8018 17.8638 36.8404 18.1756 36.9462 18.3554C37.1287 18.6677 37.4643 18.8282 37.9056 18.8282C38.4338 18.8282 38.8553 18.6957 39.1921 18.5257L39.2966 19.3291Z" fill="white"/>
</g>
<g id="g2694">
<path id="path2696" d="M39.9492 19.5942L40.496 16.758C40.6206 16.1059 40.6877 15.3969 40.735 14.9904H41.7045C41.6758 15.3022 41.6473 15.6235 41.599 15.9549H41.6275C41.9455 15.34 42.4529 14.8862 43.0867 14.8862C43.1736 14.8862 43.2595 14.896 43.3365 14.896L43.1154 15.9736C43.0579 15.9639 42.9812 15.9639 42.9041 15.9639C42.1072 15.9639 41.599 16.758 41.4173 17.741L41.0619 19.5942H39.9492Z" fill="white"/>
</g>
<g id="g2698">
<path id="path2700" d="M44.1855 15.4115H44.2674C44.3513 15.4115 44.4067 15.3655 44.4067 15.2958C44.4067 15.2174 44.3485 15.1831 44.2646 15.1831C44.226 15.1831 44.1985 15.1859 44.1855 15.1889V15.4115ZM44.1055 15.1338C44.1461 15.1265 44.2044 15.1213 44.2585 15.1213C44.3434 15.1213 44.3998 15.1383 44.4372 15.1714C44.468 15.1982 44.4858 15.24 44.4858 15.2881C44.4858 15.3672 44.4352 15.4208 44.3701 15.4421V15.4451C44.4174 15.4611 44.4451 15.5049 44.4608 15.5681C44.4807 15.6522 44.4954 15.7116 44.5084 15.7354H44.4255C44.4156 15.7168 44.4016 15.6655 44.3859 15.5896C44.367 15.5054 44.3327 15.4744 44.2605 15.4714H44.1855V15.7354H44.1055V15.1338Z" fill="white"/>
</g>
<g id="g2702">
<path id="path2704" d="M44.2892 14.8859C43.9842 14.8859 43.7363 15.1301 43.7363 15.4306C43.7363 15.7312 43.9842 15.9756 44.2892 15.9756C44.5943 15.9756 44.8421 15.7312 44.8421 15.4306C44.8421 15.1301 44.5943 14.8859 44.2892 14.8859ZM44.2892 14.9701C44.547 14.9701 44.7562 15.1757 44.7562 15.4306C44.7562 15.6853 44.547 15.8917 44.2892 15.8917C44.0307 15.8917 43.8212 15.6853 43.8212 15.4306C43.8212 15.1757 44.0307 14.9701 44.2892 14.9701Z" fill="white"/>
</g>
</g>
<g id="g2666">
<path id="path2668" d="M16.6527 10.5568C16.6992 11.5957 17.6103 15.5599 17.6103 15.5599C17.9451 16.3628 18.2334 15.5599 18.2334 15.5599C19.3356 12.3032 17.0831 10.4159 17.0831 10.4159C16.5081 10.0848 16.6527 10.5568 16.6527 10.5568ZM29.7314 9.99086C29.7314 9.99086 30.8342 10.7459 29.7314 10.8874C29.7314 10.8874 25.611 11.3593 22.545 14.192C22.545 14.192 17.9451 18.1554 16.2208 22.498C16.2208 22.498 15.6458 22.498 15.8382 21.6488C16.0296 20.7993 17.1789 17.0703 22.3048 12.4927C22.3048 12.4927 27.241 8.05571 29.7314 9.99086Z" fill="#FF4600"/>
</g>
</g>
</g>
</g>
<defs>
<clipPath id="clip0_15_318">
<rect width="50" height="32" fill="white"/>
</clipPath>
</defs>
</svg>
