<svg width="50" height="32" viewBox="0 0 50 32" fill="none" xmlns="http://www.w3.org/2000/svg">
<g id="PayPal" clip-path="url(#clip0_15_269)">
<g id="PayPal_2">
<rect id="Rectangle" width="50" height="32" rx="3" fill="#082069"/>
<g id="Group">
<g id="Group_2">
<path id="Vector" d="M14.874 20.8999H12.8013C12.6595 20.8999 12.5389 21.0029 12.5167 21.143L11.6784 26.4579C11.6618 26.5628 11.743 26.6573 11.8494 26.6573H12.8389C12.9807 26.6573 13.1014 26.5543 13.1235 26.4139L13.3496 24.9804C13.3714 24.8401 13.4923 24.7371 13.6338 24.7371H14.29C15.6553 24.7371 16.4433 24.0764 16.6491 22.7671C16.7418 22.1943 16.653 21.7443 16.3848 21.4291C16.0902 21.083 15.5677 20.8999 14.874 20.8999ZM15.1131 22.8411C14.9998 23.5848 14.4315 23.5848 13.8821 23.5848H13.5693L13.7887 22.1958C13.8018 22.1119 13.8745 22.0501 13.9593 22.0501H14.1027C14.477 22.0501 14.8301 22.0501 15.0125 22.2634C15.1213 22.3907 15.1547 22.5798 15.1131 22.8411Z" fill="white"/>
<path id="Vector_2" d="M21.0698 22.8165H20.0772C19.9927 22.8165 19.9196 22.8783 19.9066 22.9623L19.8627 23.2399L19.7933 23.1393C19.5784 22.8274 19.0992 22.7231 18.621 22.7231C17.5242 22.7231 16.5874 23.5539 16.4049 24.7192C16.3101 25.3004 16.4449 25.8563 16.7747 26.2439C17.0771 26.6003 17.5099 26.7488 18.0248 26.7488C18.9086 26.7488 19.3987 26.1806 19.3987 26.1806L19.3544 26.4564C19.3377 26.5618 19.419 26.6564 19.5247 26.6564H20.4188C20.5609 26.6564 20.6809 26.5533 20.7034 26.413L21.2398 23.0159C21.2568 22.9114 21.1759 22.8165 21.0698 22.8165ZM19.6863 24.7483C19.5905 25.3153 19.1404 25.696 18.5664 25.696C18.2782 25.696 18.0479 25.6035 17.9 25.4283C17.7533 25.2544 17.6975 25.0068 17.7442 24.731C17.8336 24.1688 18.2912 23.7757 18.8565 23.7757C19.1383 23.7757 19.3674 23.8694 19.5184 24.046C19.6696 24.2246 19.7296 24.4737 19.6863 24.7483Z" fill="white"/>
<path id="Vector_3" d="M26.3559 22.8164H25.3585C25.2633 22.8164 25.1739 22.8637 25.12 22.9428L23.7443 24.9691L23.1612 23.0219C23.1245 22.9001 23.0121 22.8164 22.8848 22.8164H21.9047C21.7856 22.8164 21.7028 22.9328 21.7407 23.0449L22.8394 26.269L21.8065 27.727C21.7253 27.8419 21.8071 27.9998 21.9474 27.9998H22.9436C23.0382 27.9998 23.1267 27.9537 23.1803 27.8762L26.4977 23.0877C26.5771 22.9731 26.4956 22.8164 26.3559 22.8164Z" fill="white"/>
<path id="Vector_4" d="M29.6579 20.8994H27.585C27.4434 20.8994 27.3228 21.0025 27.3007 21.1425L26.4624 26.4574C26.4457 26.5623 26.5269 26.6568 26.6327 26.6568H27.6965C27.7953 26.6568 27.8798 26.5847 27.8953 26.4865L28.1332 24.9799C28.155 24.8396 28.276 24.7366 28.4175 24.7366H29.0733C30.439 24.7366 31.2266 24.0759 31.4327 22.7666C31.5258 22.1938 31.4364 21.7438 31.1681 21.4286C30.8739 21.0825 30.3517 20.8994 29.6579 20.8994ZM29.8971 22.8406C29.784 23.5843 29.2158 23.5843 28.666 23.5843H28.3535L28.5733 22.1953C28.5863 22.1114 28.6584 22.0496 28.7436 22.0496H28.8869C29.2609 22.0496 29.6143 22.0496 29.7968 22.2629C29.9056 22.3902 29.9386 22.5793 29.8971 22.8406Z" fill="white"/>
<path id="Vector_5" d="M35.8534 22.8165H34.8615C34.7763 22.8165 34.7039 22.8783 34.6911 22.9623L34.6472 23.2399L34.5775 23.1393C34.3626 22.8274 33.8838 22.7231 33.4055 22.7231C32.3087 22.7231 31.3722 23.5539 31.1898 24.7192C31.0952 25.3004 31.2295 25.8563 31.5592 26.2439C31.8623 26.6003 32.2945 26.7488 32.8094 26.7488C33.6931 26.7488 34.1832 26.1806 34.1832 26.1806L34.1389 26.4564C34.1223 26.5618 34.2035 26.6564 34.3099 26.6564H35.2036C35.3452 26.6564 35.4658 26.5533 35.4879 26.413L36.0246 23.0159C36.041 22.9114 35.9598 22.8165 35.8534 22.8165ZM34.4699 24.7483C34.3747 25.3153 33.9241 25.696 33.35 25.696C33.0624 25.696 32.8315 25.6035 32.6836 25.4283C32.5369 25.2544 32.4817 25.0068 32.5278 24.731C32.6178 24.1688 33.0749 23.7757 33.6401 23.7757C33.9219 23.7757 34.1511 23.8694 34.302 24.046C34.4538 24.2246 34.5138 24.4737 34.4699 24.7483Z" fill="white"/>
<path id="Vector_6" d="M37.0235 21.045L36.1728 26.4572C36.1562 26.5621 36.2374 26.6566 36.3432 26.6566H37.1984C37.3406 26.6566 37.4612 26.5536 37.483 26.4133L38.3219 21.0986C38.3386 20.9938 38.2573 20.8989 38.1516 20.8989H37.1939C37.1093 20.8992 37.0366 20.9611 37.0235 21.045Z" fill="white"/>
</g>
<g id="Group_3">
<path id="Vector_7" opacity="0.68" d="M30.116 7.42382C30.2805 6.37542 30.1149 5.66222 29.5479 5.016C28.9237 4.30472 27.7959 4 26.3531 4H22.1647C21.8699 4 21.6187 4.21454 21.5728 4.50594L19.8287 15.5653C19.7943 15.7835 19.963 15.9808 20.1838 15.9808H22.7695L22.591 17.1125C22.561 17.3034 22.7084 17.4759 22.9016 17.4759H25.0812C25.3391 17.4759 25.5587 17.2883 25.5989 17.0334L25.6204 16.9225L26.0309 14.3189L26.0574 14.1751C26.0976 13.9203 26.3172 13.7324 26.5751 13.7324H26.9011C29.0126 13.7324 30.6659 12.8747 31.1489 10.3939C31.3508 9.35726 31.2464 8.49198 30.7126 7.88364C30.5513 7.69999 30.3503 7.5479 30.116 7.42382Z" fill="white"/>
<path id="Vector_8" opacity="0.7" d="M30.116 7.42382C30.2805 6.37542 30.1149 5.66222 29.5479 5.016C28.9237 4.30472 27.7959 4 26.3531 4H22.1647C21.8699 4 21.6187 4.21454 21.5728 4.50594L19.8287 15.5653C19.7943 15.7835 19.963 15.9808 20.1838 15.9808H22.7695L23.419 11.862L23.3988 11.9911C23.4448 11.6999 23.6936 11.4852 23.9886 11.4852H25.2176C27.6312 11.4852 29.5212 10.5046 30.0732 7.66883C30.0897 7.5851 30.1035 7.5037 30.116 7.42382Z" fill="white"/>
<path id="Vector_9" d="M24.1168 7.43768C24.1444 7.26254 24.257 7.11896 24.4083 7.04649C24.4771 7.01355 24.5541 6.99515 24.6347 6.99515H27.9178C28.3068 6.99515 28.6695 7.02068 29.0009 7.07408C29.0956 7.08931 29.1879 7.10688 29.2775 7.12679C29.367 7.14669 29.454 7.16879 29.5382 7.1935C29.5803 7.20571 29.6216 7.21875 29.6624 7.2322C29.8252 7.28628 29.9769 7.34997 30.1163 7.42395C30.2808 6.37556 30.1152 5.66236 29.5482 5.01614C28.9237 4.30472 27.7959 4 26.3531 4H22.1647C21.8699 4 21.6187 4.21454 21.5728 4.50594L19.8287 15.5653C19.7943 15.7835 19.963 15.9808 20.1838 15.9808H22.7695L23.419 11.862L24.1168 7.43768Z" fill="white"/>
</g>
</g>
</g>
</g>
<defs>
<clipPath id="clip0_15_269">
<rect width="50" height="32" fill="white"/>
</clipPath>
</defs>
</svg>
